<?xml version="1.0" encoding="UTF-8" standalone="no"?>
<!DOCTYPE svg PUBLIC "-//W3C//DTD SVG 1.1//EN" "http://www.w3.org/Graphics/SVG/1.1/DTD/svg11.dtd">
<svg width="100%" height="100%" viewBox="0 0 68 67" version="1.1" xmlns="http://www.w3.org/2000/svg" xmlns:xlink="http://www.w3.org/1999/xlink" xml:space="preserve" xmlns:serif="http://www.serif.com/" style="fill-rule:evenodd;clip-rule:evenodd;stroke-linejoin:round;stroke-miterlimit:1.41421;">
    <g transform="matrix(1,0,0,1,-113.309,-108.461)">
        <path d="M180.208,141.693C180.208,160.046 165.33,174.925 146.976,174.925C128.623,174.925 113.744,160.046 113.744,141.693C113.744,123.34 128.623,108.461 146.976,108.461C165.331,108.461 180.208,123.34 180.208,141.693" style="fill:rgb(40,45,103);fill-rule:nonzero;"/>
        <path d="M137.825,164.584L138.614,131.075C138.608,130.941 138.491,127.013 142.318,124.708C142.536,124.577 142.757,124.459 142.98,124.354C143.148,123.414 143.51,122.93 143.656,122.768C143.905,122.381 145.518,120.08 149.174,119.394C153.225,118.633 157.843,120.094 159.62,121.932C160.823,123.176 161.865,126.1 161.529,128.84C161.245,131.143 160.055,133.008 158.087,134.234C157.073,134.866 156.063,135.292 155.093,135.568C154.991,135.772 154.877,135.974 154.752,136.174C153.447,138.254 151.173,139.6 147.993,140.175L147.423,140.278L147.224,133.967L147.95,134.286C147.987,134.302 150.873,135.53 154.388,134.708C155.441,132.197 154.743,129.578 154.735,129.548C154.42,127.982 153.163,126.656 150.99,125.569L150.846,125.496C150.808,125.477 147.257,123.772 143.904,125.045C143.896,125.159 143.892,125.28 143.892,125.408C143.892,127.102 143.613,160.534 143.61,160.872L143.608,161.154L137.825,164.584ZM142.892,125.53C142.873,125.542 142.853,125.553 142.834,125.564C139.509,127.567 139.612,131.032 139.613,131.066L138.867,162.803L142.613,160.582C142.639,157.379 142.883,128.153 142.892,125.53M148.272,135.464L148.385,139.077C150.864,138.53 152.67,137.451 153.759,135.863C151.342,136.25 149.307,135.789 148.272,135.464M146.634,123.584C148.737,123.584 150.573,124.226 151.309,124.609L151.438,124.675C153.901,125.907 155.337,127.468 155.707,129.316C155.734,129.41 156.376,131.789 155.584,134.351C156.234,134.113 156.896,133.797 157.558,133.385C159.285,132.309 160.287,130.739 160.536,128.718C160.863,126.055 159.755,123.509 158.902,122.627C157.337,121.009 153.032,119.689 149.358,120.376C145.886,121.028 144.497,123.307 144.484,123.33L144.397,123.439C144.397,123.439 144.262,123.584 144.132,123.922C144.973,123.679 145.823,123.584 146.634,123.584" style="fill:white;fill-rule:nonzero;"/>
        <path d="M135.423,143.64L136.087,148.345L155.893,143.15L135.423,143.64Z" style="fill:white;fill-rule:nonzero;"/>
    </g>
</svg>
